# xmcd CD database file
#
# Track frame offsets:
#	150
#	33221
#	65668
#	107358
#	145925
#	174147
#	203592
#	243640
#
# Disc length: 3842 seconds
#
# Revision: 0
# Processed by: cddbd v1.5.2PL0 Copyright (c) Steve Scherf et al.
# Submitted via: CDex 1.70beta2
#
DISCID=630f0008
DTITLE=Marcus Printup - Lost
DYEAR=2013
DGENRE=Jazz
TTITLE0=G Wiz
TTITLE1=Hopscotch
TTITLE2=Soul Street Parade
TTITLE3=Lost
TTITLE4=Black Bossa
TTITLE5=Homey's Idea
TTITLE6=What You Talkin Bout
TTITLE7=To the Mountain Top
EXTD=YEAR: 2013
EXTT0=
EXTT1=
EXTT2=
EXTT3=
EXTT4=
EXTT5=
EXTT6=
EXTT7=
PLAYORDER=
